<svg xmlns="http://www.w3.org/2000/svg" width="1024" height="1024" viewBox="0 0 1024 1024">
<g>
<path d="M 472.00 979.35 C467.33,978.62 459.23,977.57 454.00,977.00 C440.86,975.58 405.11,968.35 399.50,965.96 C398.40,965.50 395.92,964.82 394.00,964.45 C390.31,963.76 375.89,959.40 372.50,957.95 C371.40,957.48 367.12,955.91 363.00,954.45 C349.78,949.79 346.94,948.69 337.50,944.53 C330.57,941.48 292.46,922.52 292.00,921.90 C291.73,921.52 289.48,920.17 287.00,918.89 C284.52,917.61 282.05,916.19 281.50,915.72 C280.95,915.25 278.25,913.53 275.50,911.90 C270.65,909.01 265.55,905.58 261.55,902.50 C260.47,901.68 259.06,901.00 258.42,901.00 C257.77,901.00 256.63,900.25 255.87,899.34 C255.12,898.42 253.17,896.87 251.55,895.88 C249.93,894.89 246.33,892.25 243.55,890.01 C240.77,887.78 234.37,882.82 229.32,879.00 C205.88,861.25 165.75,819.74 152.00,799.01 C151.18,797.77 148.81,794.68 146.75,792.14 C144.69,789.61 143.00,786.97 143.00,786.27 C143.00,785.57 142.55,785.00 142.00,785.00 C141.45,785.00 141.00,784.54 141.00,783.98 C141.00,783.42 138.98,780.38 136.50,777.23 C134.03,774.08 132.00,770.96 132.00,770.30 C132.00,769.64 130.88,767.90 129.52,766.43 C128.15,764.95 127.24,763.42 127.49,763.02 C127.74,762.62 126.83,761.25 125.47,759.97 C124.11,758.70 123.00,757.24 123.00,756.73 C123.00,756.22 122.08,754.51 120.95,752.92 C119.82,751.34 118.70,749.02 118.46,747.77 C118.22,746.53 117.55,745.35 116.98,745.16 C115.77,744.76 111.00,735.68 111.00,733.78 C111.00,733.07 108.76,728.69 106.03,724.05 C103.29,719.40 100.64,714.41 100.14,712.96 L 99.21 710.32 L 99.95 710.32 C99.48,710.55 99.42,710.92 99.64,711.50 C99.92,712.23 100.06,712.67 100.34,712.82 C100.77,713.04 101.54,712.60 103.64,711.51 L 105.89 710.33 L 242.36 710.65 C327.93,710.84 364.38,711.04 378.49,711.56 C379.45,711.81 380.63,711.98 381.69,711.98 C385.22,712.00 386.84,713.56 385.11,715.29 C384.50,715.90 384.00,716.86 384.00,717.42 C384.00,717.69 384.17,717.69 384.45,717.48 C383.89,718.33 383.21,719.31 382.40,720.40 C379.71,724.09 376.04,729.10 374.25,731.55 C372.46,734.00 369.44,738.14 367.53,740.75 C365.62,743.36 360.71,750.22 356.63,756.00 C352.54,761.78 348.03,767.59 346.60,768.92 C345.17,770.26 344.00,771.70 344.00,772.12 C344.00,772.55 342.54,774.99 340.75,777.55 C338.96,780.11 337.05,782.86 336.50,783.66 C335.77,784.71 335.96,785.37 337.18,786.07 C338.11,786.59 341.23,789.04 344.12,791.51 C347.01,793.98 349.73,796.00 350.16,796.00 C350.59,796.00 354.26,798.25 358.31,801.00 C362.36,803.75 365.92,806.00 366.22,806.00 C366.51,806.00 371.54,808.67 377.38,811.93 C383.23,815.20 389.02,818.19 390.26,818.58 C391.49,818.97 395.65,820.73 399.50,822.49 C405.42,825.20 412.07,827.89 417.90,830.02 C417.85,830.02 417.80,830.02 417.75,830.02 C415.93,830.03 415.79,830.22 417.00,831.00 C418.94,832.25 420.00,832.25 420.00,831.00 C420.00,830.91 419.97,830.83 419.93,830.75 C427.06,833.28 432.56,834.79 433.18,834.18 C433.56,833.80 434.01,695.67 434.18,527.21 C434.46,256.28 434.67,220.82 436.00,219.98 C441.17,216.71 446.04,220.69 455.50,235.89 C457.79,239.57 463.42,247.54 464.06,248.00 C464.43,248.27 466.49,251.25 468.62,254.62 C470.75,257.98 474.79,264.05 477.58,268.12 C489.70,285.73 551.89,378.09 560.15,390.74 C562.15,393.81 564.29,397.04 564.90,397.91 C565.51,398.79 569.29,404.45 573.29,410.50 C577.30,416.56 581.51,422.86 582.65,424.50 C583.79,426.15 586.36,429.98 588.36,433.00 C591.33,437.50 616.52,474.83 620.64,480.84 C621.26,481.75 625.20,487.67 629.38,494.00 C636.66,505.01 641.28,511.85 670.50,554.90 C677.65,565.43 684.62,575.81 686.00,577.97 C688.51,581.90 699.75,598.47 704.34,605.00 C706.65,608.29 714.80,620.49 725.00,635.94 C727.47,639.68 731.75,646.01 734.50,649.99 C737.25,653.98 741.30,660.00 743.50,663.37 C745.70,666.74 749.97,673.10 752.98,677.50 C761.09,689.34 762.12,691.46 760.69,693.38 C759.67,694.75 747.81,698.55 741.50,699.52 C740.40,699.69 739.50,699.90 739.50,699.99 C739.50,700.08 738.38,700.34 737.00,700.57 C735.62,700.80 732.70,701.61 730.50,702.37 C728.29,703.13 725.95,703.85 721.80,705.00 C721.88,704.97 721.94,704.93 722.00,704.90 C724.67,703.40 718.78,703.96 715.50,705.51 L 712.50 706.93 L 716.50 706.34 C716.85,706.29 717.21,706.23 717.57,706.16 C713.20,707.34 707.31,708.89 699.00,711.06 C697.08,711.56 693.25,712.60 690.50,713.37 C687.75,714.14 681.67,715.76 677.00,716.97 C672.33,718.18 665.58,720.00 662.00,721.02 C651.31,724.05 638.03,727.69 629.00,730.05 C624.33,731.27 617.58,733.10 614.00,734.11 C610.42,735.12 600.53,737.81 592.00,740.09 C583.47,742.37 573.58,745.11 570.00,746.18 C566.42,747.25 559.45,749.21 554.50,750.53 C549.55,751.85 542.12,753.89 538.00,755.06 C533.88,756.23 527.58,757.98 524.00,758.95 C520.42,759.92 514.46,761.56 510.75,762.59 L 509.88 762.83 C511.31,762.20 511.12,762.13 509.00,762.09 C507.62,762.06 505.83,762.47 505.00,763.00 C503.76,763.80 503.85,763.96 505.50,763.91 C505.71,763.91 505.94,763.89 506.18,763.86 L 504.00 764.46 L 504.00 847.80 L 510.75 848.45 C515.39,848.90 521.87,848.90 529.30,848.53 C529.16,848.65 529.40,848.81 530.00,849.00 C531.38,849.44 533.40,849.80 534.50,849.80 C535.60,849.80 537.62,849.44 539.00,849.00 C540.71,848.45 539.49,848.21 534.88,848.20 C549.00,847.22 565.46,845.11 579.00,842.34 C583.12,841.50 588.75,840.40 591.50,839.89 C598.95,838.52 616.33,833.08 624.28,829.64 C626.37,828.74 628.51,828.00 629.05,828.00 C630.05,828.00 635.97,825.34 652.50,817.45 C657.45,815.09 662.51,812.87 663.75,812.51 C664.99,812.16 666.00,811.50 666.00,811.05 C666.00,810.60 668.59,808.95 671.75,807.38 C674.91,805.81 677.72,804.25 678.00,803.91 C678.28,803.57 680.51,802.04 682.98,800.49 C685.44,798.95 687.96,797.20 688.58,796.59 C689.20,795.99 692.32,793.92 695.51,792.00 C698.71,790.08 702.71,787.29 704.41,785.80 C706.11,784.32 709.75,781.26 712.50,779.00 C721.56,771.57 723.38,769.91 736.41,757.14 C743.51,750.19 752.73,740.22 756.91,735.00 C761.08,729.78 765.53,724.67 766.78,723.66 C768.03,722.64 769.91,720.13 770.96,718.07 C772.01,716.02 774.02,713.25 775.42,711.92 C776.82,710.59 777.97,708.75 777.98,707.83 C777.99,706.92 778.35,706.02 778.77,705.83 C779.19,705.65 781.08,703.03 782.97,700.00 C784.86,696.97 787.44,693.43 788.70,692.11 C789.97,690.80 791.00,689.00 791.00,688.11 C791.01,686.40 797.60,674.89 799.14,673.93 C799.64,673.61 800.22,672.49 800.44,671.43 C800.66,670.37 803.15,664.60 805.97,658.61 C808.79,652.62 812.66,643.62 814.57,638.61 C816.48,633.60 818.79,627.92 819.71,626.00 C820.62,624.08 821.42,621.83 821.47,621.00 C821.53,620.17 822.52,616.58 823.68,613.00 C826.81,603.30 830.12,591.33 830.68,587.70 C830.96,585.94 831.87,582.03 832.72,579.00 C833.57,575.97 834.60,570.12 835.00,566.00 C835.40,561.88 836.35,555.35 837.11,551.50 C839.24,540.78 839.06,477.94 836.87,464.50 C835.98,459.00 835.18,452.91 835.10,450.96 C834.93,446.46 834.61,444.96 832.12,437.00 C831.01,433.42 830.13,429.15 830.16,427.50 C830.19,425.85 829.74,423.28 829.15,421.79 C828.56,420.29 828.42,418.86 828.84,418.60 C829.61,418.12 877.87,417.81 930.21,417.93 C952.84,417.99 958.58,417.79 960.33,420.34 C961.06,421.40 961.10,422.93 961.37,425.14 C961.60,426.99 962.25,430.30 962.81,432.50 C963.04,433.41 963.30,434.82 963.54,436.46 C963.30,435.55 963.04,435.00 962.78,435.00 C961.76,435.00 962.38,443.22 963.66,446.56 C964.44,448.59 964.59,448.23 964.32,443.33 C964.34,443.56 964.36,443.78 964.37,444.00 C964.67,448.12 965.61,456.00 966.45,461.50 C968.22,473.04 968.64,537.33 967.04,552.00 C966.32,558.50 965.38,565.95 964.45,572.65 C964.53,571.13 964.40,570.34 963.96,571.12 C963.46,572.01 962.81,575.38 962.53,578.62 C962.14,583.00 962.24,583.74 962.90,581.50 C963.14,580.72 963.35,579.84 963.54,578.94 C962.54,585.71 961.64,590.85 961.21,592.00 C960.70,593.38 959.97,596.75 959.60,599.50 C958.26,609.45 952.30,632.23 945.82,652.20 C943.55,659.18 941.77,665.15 941.87,665.46 C941.96,665.77 941.29,667.48 940.36,669.26 C939.44,671.04 938.12,674.53 937.42,677.00 C936.72,679.47 934.08,686.45 931.56,692.50 C928.03,700.95 926.20,705.26 924.06,709.76 C924.15,709.00 924.35,708.05 924.57,707.33 C924.88,706.32 924.45,706.62 923.60,708.00 C922.76,709.38 922.05,710.84 922.04,711.25 C922.02,711.66 922.44,711.99 922.98,712.00 C921.53,714.95 919.83,718.25 917.38,723.00 C915.52,726.58 914.01,729.79 914.00,730.15 C914.00,730.97 903.10,749.95 892.13,768.22 C889.13,773.23 871.94,797.81 868.10,802.58 C867.63,803.18 864.25,807.54 860.59,812.27 C856.94,817.00 851.18,823.94 847.80,827.68 C838.49,837.99 806.17,870.00 805.07,870.00 C804.53,870.00 803.73,870.67 803.27,871.48 C802.25,873.31 794.15,879.86 779.00,891.11 C768.95,898.58 764.69,901.56 751.81,910.17 C738.99,918.74 706.06,936.35 688.50,944.04 C684.65,945.72 680.72,947.53 679.76,948.05 C678.81,948.57 677.46,949.00 676.76,949.01 C676.07,949.02 673.03,950.18 670.00,951.60 C666.97,953.02 663.60,954.36 662.50,954.58 C661.40,954.80 658.25,955.83 655.50,956.88 C650.30,958.86 644.22,960.90 638.14,962.75 C638.86,962.23 637.78,962.17 635.00,962.57 C632.53,962.93 629.83,963.64 629.00,964.15 C628.02,964.76 629.07,964.86 632.00,964.43 C632.34,964.38 632.68,964.32 633.02,964.26 C627.81,965.75 622.78,967.04 618.50,967.96 C616.30,968.43 612.03,969.48 609.00,970.31 C605.97,971.13 600.58,972.29 597.00,972.89 C593.42,973.49 588.47,974.45 586.00,975.03 C583.53,975.60 577.22,976.52 572.00,977.05 C566.78,977.59 557.55,978.72 551.50,979.55 C537.52,981.49 484.91,981.35 472.00,979.35 ZM 65.40 600.26 C65.35,598.74 64.56,593.84 63.64,589.37 C61.80,580.44 61.16,574.01 60.47,557.56 C60.22,551.55 59.66,546.37 59.24,546.06 C58.20,545.31 58.08,543.33 57.41,516.50 C57.05,502.20 57.26,489.15 57.97,482.00 C58.60,475.67 59.07,468.79 59.03,466.70 C58.98,464.61 59.29,462.36 59.70,461.70 C60.12,461.04 60.55,457.58 60.65,454.00 C60.86,446.40 61.65,440.01 62.98,435.05 C63.51,433.10 64.17,429.48 64.46,427.00 C64.74,424.52 65.68,419.35 66.54,415.50 C67.39,411.65 68.48,406.20 68.94,403.38 C69.41,400.56 70.74,396.12 71.90,393.50 C73.05,390.89 74.00,387.44 74.00,385.85 C74.00,384.25 74.94,380.37 76.10,377.23 C77.25,374.08 78.53,369.90 78.93,367.94 C79.33,365.99 80.41,362.88 81.33,361.04 C82.25,359.20 83.00,356.70 83.00,355.50 C83.00,354.29 84.09,351.25 85.42,348.74 C86.76,346.23 87.66,343.99 87.43,343.76 C87.20,343.53 88.83,338.88 91.06,333.42 C93.29,327.96 96.05,321.14 97.19,318.25 C98.34,315.36 99.67,313.00 100.14,313.00 C100.61,313.00 101.00,312.21 101.00,311.25 C101.00,309.03 106.43,297.47 107.90,296.56 C108.51,296.19 109.00,295.07 109.00,294.08 C109.00,293.09 110.11,290.64 111.47,288.64 C112.83,286.64 113.72,285.00 113.44,285.00 C113.17,285.00 113.65,283.65 114.50,282.00 C115.35,280.35 116.43,279.00 116.90,279.00 C117.37,279.00 118.00,277.76 118.31,276.25 C118.61,274.74 119.69,272.60 120.71,271.50 C121.73,270.40 124.06,266.46 125.89,262.75 C127.73,259.04 129.58,256.00 130.01,256.00 C130.43,256.00 131.05,254.93 131.38,253.61 C131.71,252.30 133.10,250.16 134.47,248.86 C135.84,247.56 136.97,245.95 136.98,245.28 C137.00,243.72 143.12,235.00 144.19,235.00 C144.64,235.00 145.00,234.35 145.00,233.55 C145.00,231.17 163.04,207.55 178.21,190.07 C184.24,183.12 214.27,153.60 223.04,146.00 C225.89,143.52 229.99,140.33 232.14,138.91 C234.30,137.48 236.93,135.45 237.98,134.41 C240.56,131.85 241.35,131.26 249.75,125.69 C253.74,123.04 257.00,120.45 257.00,119.94 C257.00,119.42 257.43,119.00 257.96,119.00 C259.06,119.00 265.33,114.99 269.00,111.94 C271.71,109.69 274.68,107.92 279.75,105.51 C281.54,104.67 283.00,103.56 283.00,103.05 C283.00,102.55 283.89,101.85 284.98,101.51 C286.07,101.16 289.56,99.29 292.73,97.36 C297.74,94.31 325.85,80.32 334.50,76.57 C345.06,72.00 347.96,70.92 351.82,70.10 C354.20,69.59 356.90,68.53 357.82,67.72 C358.74,66.92 360.85,65.97 362.50,65.60 C364.15,65.23 367.75,64.08 370.50,63.04 C378.45,60.04 388.74,57.00 390.93,57.00 C392.03,57.00 394.41,56.38 396.22,55.62 C400.78,53.70 405.79,52.24 410.50,51.45 C412.70,51.08 417.65,49.98 421.50,49.00 C425.35,48.02 431.40,46.91 434.95,46.54 C438.50,46.16 443.90,45.23 446.95,44.47 C450.00,43.71 457.00,42.86 462.50,42.58 C468.00,42.31 476.77,41.63 482.00,41.07 C493.97,39.79 527.88,39.74 543.00,40.97 C549.33,41.49 558.33,42.19 563.00,42.52 C567.67,42.86 573.14,43.56 575.14,44.08 C577.14,44.59 583.58,45.69 589.44,46.51 C595.30,47.34 602.79,48.92 606.10,50.03 C609.40,51.15 612.45,51.84 612.87,51.58 C613.78,51.02 629.07,54.83 630.50,55.97 C631.05,56.41 633.30,57.01 635.50,57.29 C642.04,58.14 662.93,64.91 670.33,68.59 C671.89,69.37 673.79,70.00 674.55,70.00 C676.06,70.00 676.54,70.19 695.50,78.50 C702.65,81.64 709.21,84.83 710.08,85.60 C710.95,86.37 712.34,87.00 713.18,87.00 C714.01,87.00 716.68,88.34 719.10,89.98 C721.52,91.62 724.18,92.97 725.02,92.98 C725.86,92.99 729.23,94.79 732.52,96.97 C735.81,99.16 738.82,100.96 739.20,100.97 C740.47,101.02 760.28,113.29 770.00,120.03 C799.50,140.51 830.90,168.54 849.21,190.74 C852.67,194.93 857.33,200.42 859.56,202.93 C861.79,205.44 865.37,209.98 867.52,213.00 C869.67,216.02 873.13,220.55 875.21,223.06 C877.30,225.57 879.00,227.94 879.00,228.31 C879.00,228.69 880.69,231.34 882.75,234.20 C887.84,241.26 894.43,251.59 897.13,256.75 C898.35,259.09 899.72,261.00 900.18,261.00 C900.63,261.00 901.00,261.39 901.00,261.88 C901.00,262.36 903.67,267.54 906.94,273.40 C912.72,283.74 920.20,298.58 922.94,304.90 C922.15,303.70 922.03,303.76 922.02,305.17 C922.01,306.08 920.76,307.29 919.25,307.84 C918.85,307.98 918.51,308.11 918.23,308.22 C880.18,309.40 666.56,309.37 663.89,307.94 C659.66,305.67 662.04,301.24 679.17,279.50 C681.77,276.20 684.70,272.58 685.70,271.46 C686.69,270.34 687.65,268.99 687.84,268.46 C688.03,267.93 690.07,265.25 692.38,262.50 C694.70,259.75 699.45,253.70 702.95,249.07 L 709.32 240.63 L 707.07 239.07 C705.84,238.20 703.12,236.04 701.04,234.25 C698.96,232.46 696.92,231.00 696.51,231.00 C696.09,231.00 692.99,229.09 689.61,226.75 C681.63,221.23 679.98,220.20 677.17,218.99 C675.90,218.44 672.97,216.73 670.67,215.18 C663.27,210.21 628.21,194.00 624.84,194.00 C624.05,194.00 622.97,193.62 622.45,193.17 C620.44,191.40 583.09,180.00 579.32,180.00 C578.27,180.00 574.77,179.31 571.54,178.47 C564.45,176.62 546.17,174.42 524.66,172.81 C510.31,171.75 491.83,172.35 474.50,174.47 C473.40,174.60 469.35,175.04 465.50,175.45 C457.39,176.31 437.00,180.28 429.00,182.57 C425.98,183.43 422.15,184.51 420.50,184.97 C414.22,186.70 395.12,193.46 389.50,195.94 C388.40,196.42 385.25,197.78 382.50,198.96 C375.51,201.96 358.34,210.69 353.21,213.85 C345.29,218.74 327.54,230.47 323.50,233.50 C315.89,239.20 298.49,253.83 295.97,256.66 C294.57,258.22 291.87,260.93 289.97,262.68 C284.13,268.05 272.56,281.05 265.67,290.00 C262.08,294.67 257.73,300.30 256.01,302.50 C249.54,310.78 246.16,315.82 239.59,327.00 C235.88,333.33 232.41,339.17 231.89,340.00 C231.37,340.83 230.05,343.30 228.94,345.50 C227.84,347.70 226.57,350.17 226.11,351.00 C225.65,351.83 224.02,355.20 222.47,358.50 C220.93,361.80 219.09,365.65 218.39,367.05 C217.69,368.46 216.14,372.28 214.94,375.55 C213.74,378.82 212.36,381.93 211.88,382.45 C211.39,382.97 211.00,384.22 211.00,385.21 C211.00,385.57 210.94,385.99 210.85,386.44 C210.67,386.18 210.36,386.00 210.00,386.00 C209.45,386.00 209.00,386.70 209.00,387.56 C209.00,388.42 209.45,388.84 210.00,388.50 C210.07,388.45 210.15,388.40 210.22,388.34 C210.15,388.49 210.07,388.63 210.00,388.76 C208.76,390.91 203.16,407.24 202.02,412.00 C201.56,413.92 200.68,417.08 200.07,419.00 C198.54,423.78 193.96,444.58 193.35,449.50 C193.08,451.70 192.20,456.88 191.40,461.00 C190.43,466.00 189.59,475.70 189.04,486.84 C189.06,486.40 189.06,485.95 189.07,485.50 C189.12,480.55 189.49,473.93 189.88,470.78 C190.28,467.64 190.35,465.31 190.05,465.61 C189.03,466.64 187.08,482.47 187.06,490.00 C187.04,495.20 187.33,497.04 188.00,496.00 C188.36,495.45 188.69,493.15 188.89,490.21 C188.35,502.73 188.16,516.60 188.53,527.50 C189.19,547.67 190.10,557.61 192.44,570.41 C193.24,574.77 193.82,578.59 193.74,578.91 C193.65,579.24 194.62,583.85 195.88,589.16 C197.15,594.47 198.02,599.64 197.83,600.66 C197.49,602.42 194.69,602.51 131.49,602.76 L 65.50 603.01 ZM 839.22 507.00 C839.21,514.15 839.50,517.55 840.00,516.00 C841.01,512.85 841.01,502.46 840.00,498.50 C839.52,496.60 839.23,499.72 839.22,507.00 ZM 502.61 769.41 C503.55,771.87 504.00,771.31 503.97,767.75 C503.95,765.16 503.74,764.84 502.97,766.16 C502.43,767.08 502.27,768.54 502.61,769.41 ZM 923.97 307.60 C923.99,307.70 924.00,307.77 924.00,307.83 C924.00,307.85 923.96,307.87 923.88,307.89 C923.92,307.80 923.95,307.70 923.97,307.60 Z" fill="#9B2226"/>
<path d="M 629.00 964.15 C629.83,963.64 632.53,962.93 635.00,962.57 C637.93,962.14 638.98,962.24 638.00,962.85 C637.17,963.36 634.47,964.07 632.00,964.43 C629.07,964.86 628.02,964.76 629.00,964.15 ZM 530.00 849.00 C528.24,848.44 529.58,848.20 534.50,848.20 C539.42,848.20 540.76,848.44 539.00,849.00 C537.62,849.44 535.60,849.80 534.50,849.80 C533.40,849.80 531.38,849.44 530.00,849.00 ZM 417.00 831.00 C415.79,830.22 415.93,830.03 417.75,830.02 C418.99,830.01 420.00,830.45 420.00,831.00 C420.00,832.25 418.94,832.25 417.00,831.00 ZM 502.61 769.41 C502.27,768.54 502.43,767.08 502.97,766.16 C503.74,764.84 503.95,765.16 503.97,767.75 C504.00,771.31 503.55,771.87 502.61,769.41 ZM 505.00 763.00 C505.83,762.47 507.62,762.06 509.00,762.09 C511.29,762.14 511.33,762.21 509.50,763.00 C508.40,763.47 506.60,763.88 505.50,763.91 C503.85,763.96 503.76,763.80 505.00,763.00 ZM 384.00 717.42 C384.00,716.86 384.50,715.90 385.11,715.29 C386.84,713.56 385.22,712.00 381.69,711.98 C379.94,711.98 377.83,711.52 377.00,710.96 C375.91,710.23 376.85,710.03 380.40,710.23 C386.37,710.56 388.14,712.53 385.66,716.08 C384.75,717.38 384.00,717.98 384.00,717.42 ZM 99.64 711.50 C99.19,710.33 99.89,710.00 102.78,710.01 L 106.50 710.01 L 103.64 711.51 C100.14,713.33 100.34,713.33 99.64,711.50 ZM 922.04 711.25 C922.05,710.84 922.76,709.38 923.60,708.00 C924.45,706.62 924.88,706.32 924.57,707.33 C924.26,708.34 924.00,709.80 924.00,710.58 C924.00,711.36 923.55,712.00 923.00,712.00 C922.45,712.00 922.02,711.66 922.04,711.25 ZM 715.50 705.51 C718.78,703.96 724.67,703.40 722.00,704.90 C721.17,705.36 718.70,706.01 716.50,706.34 L 712.50 706.93 L 715.50 705.51 ZM 962.53 578.62 C962.81,575.38 963.46,572.01 963.96,571.12 C965.05,569.18 964.26,576.94 962.90,581.50 C962.24,583.74 962.14,583.00 962.53,578.62 ZM 839.22 507.00 C839.23,499.72 839.52,496.60 840.00,498.50 C841.01,502.46 841.01,512.85 840.00,516.00 C839.50,517.55 839.21,514.15 839.22,507.00 ZM 187.06 490.00 C187.08,482.47 189.03,466.64 190.05,465.61 C190.35,465.31 190.28,467.64 189.88,470.78 C189.49,473.93 189.12,480.55 189.07,485.50 C189.01,490.45 188.53,495.17 188.00,496.00 C187.33,497.04 187.04,495.20 187.06,490.00 ZM 963.66 446.56 C962.38,443.22 961.76,435.00 962.78,435.00 C963.35,435.00 963.99,437.81 964.20,441.25 C964.62,448.10 964.54,448.85 963.66,446.56 ZM 209.00 387.56 C209.00,386.70 209.45,386.00 210.00,386.00 C210.55,386.00 211.00,386.42 211.00,386.94 C211.00,387.46 210.55,388.16 210.00,388.50 C209.45,388.84 209.00,388.42 209.00,387.56 ZM 919.25 307.84 C920.76,307.29 922.01,306.08 922.02,305.17 C922.03,303.73 922.16,303.70 923.00,305.00 C924.88,307.91 924.11,309.00 920.25,308.92 C916.56,308.84 916.54,308.83 919.25,307.84 Z" fill="#9B2226"/>
</g>
</svg>